<?xml version="1.0" encoding="UTF-8"?>
<svg xmlns="http://www.w3.org/2000/svg" id="Icons" viewBox="0 0 60 60" width="512" height="512"><path d="M10,23v1h6V23c0-4.171,1.1-7.778,2.8-9.921A10.01,10.01,0,0,0,10,23Z"/><path d="M26,29.274A29.869,29.869,0,0,1,30,29c.672,0,1.338.031,2,.075V26H26Z"/><path d="M18,23v1h6V13H22.5C20.372,13,18,17.106,18,23Z"/><path d="M32,23c0-5.894-2.372-10-4.5-10H26V24h6Z"/><path d="M18,26v5.519a29.879,29.879,0,0,1,6-1.908V26Z"/><path d="M27.949,6.706a3.938,3.938,0,0,0,4.675.655l.017-.09L27.384,2.015A3.812,3.812,0,0,0,27.949,6.706Z"/><path d="M42,31.519a30.282,30.282,0,0,1,4,2.116V24H42Z"/><path d="M25.323,11H29V9.564a5.861,5.861,0,0,1-2.3-1.312Z"/><path d="M3.118,50.952a33.769,33.769,0,0,0,26.11-1.233C33.7,47.7,36.974,46.109,39.6,44.834c4.768-2.312,7.453-3.614,11.227-4.557a28.49,28.49,0,0,0-3.471-3.235c-3.482.759-5.926,1.794-10.589,3.771-2.6,1.1-5.836,2.474-10.274,4.227A41.315,41.315,0,0,1,11.248,48a38.739,38.739,0,0,1-6.783-.6A27.528,27.528,0,0,0,3.118,50.952Z"/><path d="M25.762,43.181c4.415-1.744,7.638-3.112,10.228-4.209a69.484,69.484,0,0,1,9.229-3.462,28.217,28.217,0,0,0-5.428-2.731c-1.257.463-2.6,1.039-4.409,1.82-1.91.824-4.287,1.85-7.538,3.159A30.218,30.218,0,0,1,16.511,40a28.263,28.263,0,0,1-6.384-.731A28.188,28.188,0,0,0,5.4,45.535,38.625,38.625,0,0,0,25.762,43.181Z"/><path d="M10,36.653a30.355,30.355,0,0,1,6-4.17V26H10Z"/><path d="M34,23v1h6V23a10.01,10.01,0,0,0-8.8-9.921C32.9,15.222,34,18.829,34,23Z"/><path d="M34,29.274a29.79,29.79,0,0,1,6,1.449V26H34Z"/><path d="M53,39.73V26a2,2,0,0,0-2-2H48V35.018A30.442,30.442,0,0,1,53,39.73Z"/><path d="M27.1,35.9c3.228-1.3,5.592-2.319,7.493-3.139.809-.35,1.512-.651,2.175-.93a27.962,27.962,0,0,0-24.824,5.773A27.53,27.53,0,0,0,27.1,35.9Z"/><path d="M40.476,46.634c-2.641,1.28-5.927,2.873-10.424,4.907a37.446,37.446,0,0,1-15.536,3.452A34.284,34.284,0,0,1,2.6,52.891,27.611,27.611,0,0,0,2,56.936a.972.972,0,0,0,.262.738A1.013,1.013,0,0,0,3.013,58H16a51.648,51.648,0,0,0,14.847-2.119c4.426-1.314,7.656-2.342,10.251-3.168,6.231-1.986,8.8-2.8,15.214-3.464A27.932,27.932,0,0,0,52.263,42C48.172,42.9,45.665,44.117,40.476,46.634Z"/><path d="M57.734,57.674A.969.969,0,0,0,58,56.936a27.591,27.591,0,0,0-1.043-5.74C50.436,51.84,48.1,52.58,41.7,54.618c-2.6.829-5.843,1.861-10.29,3.181-.242.071-.486.133-.728.2h26.3A1.01,1.01,0,0,0,57.734,57.674Z"/></svg>
