<?xml version="1.0" encoding="UTF-8"?>
<svg xmlns="http://www.w3.org/2000/svg" id="Icons" viewBox="0 0 60 60" width="512" height="512"><path d="M11,36a1,1,0,0,1-.707-1.707l1-1a1,1,0,0,1,1.414,1.414l-1,1A1,1,0,0,1,11,36Z"/><path d="M11,41a1,1,0,0,1-.707-1.707l6-6a1,1,0,0,1,1.414,1.414l-6,6A1,1,0,0,1,11,41Z"/><path d="M3,45H5v4a5.006,5.006,0,0,0,5,5H21.735a5.023,5.023,0,0,0,4.287-2.427l.67-1.116A3.015,3.015,0,0,1,29.265,49h1.47a3.015,3.015,0,0,1,2.573,1.457l.67,1.116A5.023,5.023,0,0,0,38.265,54H50a5.006,5.006,0,0,0,5-5V45h2a3,3,0,0,0,3-3V34a3,3,0,0,0-3-3H55a7.008,7.008,0,0,0-7-7H47V23a4,4,0,0,0-4-4H38V10a4,4,0,0,0-4-4H26a4,4,0,0,0-4,4v9H17a4,4,0,0,0-4,4v1H12a7.008,7.008,0,0,0-7,7H3a3,3,0,0,0-3,3v8A3,3,0,0,0,3,45Zm50,4a3,3,0,0,1-3,3H38.265a3.015,3.015,0,0,1-2.573-1.457l-.67-1.116A5.023,5.023,0,0,0,30.735,47h-1.47a5.023,5.023,0,0,0-4.287,2.427l-.67,1.116A3.015,3.015,0,0,1,21.735,52H10a3,3,0,0,1-3-3V35a5.006,5.006,0,0,1,5-5H48a5.006,5.006,0,0,1,5,5V49Zm4-16a1,1,0,0,1,1,1v8a1,1,0,0,1-1,1H55V33ZM26,8h8a2,2,0,0,1,2,2v5H24V10A2,2,0,0,1,26,8Zm-2,9H36v2H24Zm-9,6a2,2,0,0,1,2-2H43a2,2,0,0,1,2,2v1H15Zm-3,3H48a5.008,5.008,0,0,1,4.9,4.009A6.974,6.974,0,0,0,48,28H12a6.974,6.974,0,0,0-4.9,2.009A5.008,5.008,0,0,1,12,26ZM2,34a1,1,0,0,1,1-1H5V43H3a1,1,0,0,1-1-1Z"/></svg>
