<svg width="1153" height="234" viewBox="0 0 1153 234" fill="none" xmlns="http://www.w3.org/2000/svg">
<path d="M101.972 16.724H59.348V85.1H38.924V16.724H-2.26498e-06V-9.53674e-07H101.972V16.724ZM121.215 -9.53674e-07H168.575V17.464H139.863V34.188H168.575V51.504H139.863V85.1H121.215V-9.53674e-07ZM223.187 85.1V49.876L209.275 42.624L223.187 35.964V10.212L205.723 -9.53674e-07H175.235V17.464H204.539V34.188H175.235V51.504H204.539V85.1H223.187ZM245.443 10.212V85.1H264.091V51.06H292.803V34.188H264.091V16.724H292.803V-9.53674e-07H262.315L245.443 10.212ZM347.415 10.212V85.1H328.767V51.06H299.463V34.188H328.767V16.724H299.463V-9.53674e-07H329.951L347.415 10.212ZM374.001 -9.53674e-07H390.873L421.361 28.712V51.06L392.649 23.384V85.1H374.001V-9.53674e-07ZM457.325 61.124V-9.53674e-07H475.973V85.1H458.509L428.021 55.796V34.188L457.325 61.124ZM502.564 10.212L519.88 -9.53674e-07H550.516V16.724H521.212V67.784H549.924V85.1H519.88L502.564 75.036V10.212ZM604.536 10.212V75.036L587.812 85.1H557.176V67.784H569.756L557.176 55.796L569.164 44.4L585.888 61.124V16.724H557.176V-9.53674e-07H587.812L604.536 10.212ZM619.056 -9.53674e-07V75.036L635.928 85.1H666.416V67.784H637.704V-9.53674e-07H619.056ZM721.028 -9.53674e-07V75.036L704.304 85.1H673.668V67.784H702.38V-9.53674e-07H721.028ZM744.654 -9.53674e-07H763.302V85.1H744.654V-9.53674e-07ZM789.962 -9.53674e-07H808.61V67.784H836.73V85.1H789.962V-9.53674e-07ZM844.574 67.784V85.1H891.934V67.784H844.574ZM905.228 -9.53674e-07H923.876V85.1H905.228V-9.53674e-07ZM1042.15 16.724H999.524V85.1H979.1V16.724H940.176V-9.53674e-07H1042.15V16.724ZM1110.38 46.176V85.1H1093.66V46.176L1051.03 5.476L1067.9 -9.53674e-07L1101.94 32.412L1136.28 -9.53674e-07L1153 5.476L1110.38 46.176ZM10.36 148H57.72V164.724H29.008V182.188H57.72V199.06H29.008V215.784H57.72V233.1H10.36V148ZM112.332 223.036V197.136L98.42 190.624L112.332 183.964V158.212L95.608 148H64.972V164.724H93.684V182.188H64.972V199.06H93.684V215.784H64.972V233.1H95.608L112.332 223.036ZM126.927 158.212V233.1H145.575V199.06H174.287V182.188H145.575V164.724H174.287V148H143.799L126.927 158.212ZM228.899 158.212V233.1H210.251V199.06H180.947V182.188H210.251V164.724H180.947V148H211.435L228.899 158.212ZM251.045 158.212V189.44L267.917 199.504H298.405V182.188H269.101V165.464H298.405V148H267.917L251.045 158.212ZM353.017 192.4V223.036L335.553 233.1H305.657V216.376H334.369V199.504H305.065V182.188H335.553L353.017 192.4ZM269.693 206.164H251.045V223.036L268.361 233.1H298.405V216.376H269.693V206.164ZM353.017 175.528H334.369V165.464H305.065V148H335.553L353.017 158.212V175.528ZM378.192 148H425.552V165.464H396.84V182.188H425.552V199.06H396.84V216.376H424.96V233.1H378.192V148ZM432.804 216.376V233.1H480.164V216.376H432.804ZM480.164 165.464V148H432.212V165.464H480.164ZM456.188 199.06V182.188H432.212V199.06H456.188Z" fill="white"/>
</svg>
