<svg id="Layer_2" enable-background="new 0 0 24 24" height="512" viewBox="0 0 24 24" width="512" xmlns="http://www.w3.org/2000/svg"><path d="m21 10.25h-.5v-.5c0-1.379-1.121-2.5-2.5-2.5h-3.5c0-.827-.673-1.5-1.5-1.5h-2c-.827 0-1.5.673-1.5 1.5h-3.5c-1.379 0-2.5 1.121-2.5 2.5v.5h-.5c-.827 0-1.5.673-1.5 1.5v2c0 .827.673 1.5 1.5 1.5h.5v.5c0 1.379 1.121 2.5 2.5 2.5h3c.827 0 1.5-.673 1.5-1.5 0-.275.225-.5.5-.5h2c.275 0 .5.225.5.5 0 .827.673 1.5 1.5 1.5h3c1.379 0 2.5-1.121 2.5-2.5v-.5h.5c.827 0 1.5-.673 1.5-1.5v-2c0-.827-.673-1.5-1.5-1.5zm-10-3.5h2c.275 0 .5.225.5.5h-3c0-.275.225-.5.5-.5zm-8 7.5c-.275 0-.5-.225-.5-.5v-2c0-.275.225-.5.5-.5h.5v3zm16.5 1.5c0 .827-.673 1.5-1.5 1.5h-3c-.275 0-.5-.225-.5-.5 0-.827-.673-1.5-1.5-1.5h-2c-.827 0-1.5.673-1.5 1.5 0 .275-.225.5-.5.5h-3c-.827 0-1.5-.673-1.5-1.5 0-1.336 0-4.664 0-6 0-.827.673-1.5 1.5-1.5h12c.827 0 1.5.673 1.5 1.5zm2-2c0 .275-.225.5-.5.5h-.5v-3h.5c.275 0 .5.225.5.5z"/></svg>