<svg width="420" height="66" viewBox="0 0 420 66" fill="none" xmlns="http://www.w3.org/2000/svg">
<rect width="420" height="66" fill="#F5F5F5"/>
<rect width="420" height="66" fill="black"/>
<path d="M78.36 23.712V33.84L83.832 37.104H93.72V31.488H84.216V26.064H93.72V20.4H83.832L78.36 23.712ZM111.432 34.8V44.736L105.768 48H96.072V42.576H105.384V37.104H95.88V31.488H105.768L111.432 34.8ZM84.408 39.264H78.36V44.736L83.976 48H93.72V42.576H84.408V39.264ZM111.432 29.328H105.384V26.064H95.88V20.4H105.768L111.432 23.712V29.328ZM149.309 25.824H135.485V48H128.861V25.824H116.237V20.4H149.309V25.824ZM154.028 23.712V48H160.076V36.96H169.388V31.488H160.076V25.824H169.388V20.4H159.5L154.028 23.712ZM187.1 23.712V48H181.052V36.96H171.548V31.488H181.052V25.824H171.548V20.4H181.436L187.1 23.712ZM209.782 35.376V48H204.358V35.376L190.534 22.176L196.006 20.4L207.046 30.912L218.182 20.4L223.606 22.176L209.782 35.376ZM227.048 23.712V33.84L232.52 37.104H242.408V31.488H232.904V26.064H242.408V20.4H232.52L227.048 23.712ZM260.12 34.8V44.736L254.456 48H244.76V42.576H254.072V37.104H244.568V31.488H254.456L260.12 34.8ZM233.096 39.264H227.048V44.736L232.664 48H242.408V42.576H233.096V39.264ZM260.12 29.328H254.072V26.064H244.568V20.4H254.456L260.12 23.712V29.328ZM268.284 20.4H283.836V25.824H274.524V31.488H283.836V37.104H274.524V48H268.284V20.4ZM301.548 33.84V23.712L295.932 20.4H285.996V25.824H295.308V31.488H285.996V37.104H295.932L301.548 33.84ZM306.278 23.712V48H312.326V36.96H321.638V31.488H312.326V25.824H321.638V20.4H311.75L306.278 23.712ZM339.35 23.712V48H333.302V36.96H323.798V31.488H333.302V25.824H323.798V20.4H333.686L339.35 23.712ZM344.059 23.712L349.675 20.4H359.611V25.824H350.299V42.384H359.419V48H349.675L344.059 44.736V23.712ZM371.083 39.072V42.384H361.963V48H371.707L377.323 44.736V39.072H371.083ZM377.323 29.184V23.712L371.707 20.4H361.771V25.824H371.083V29.184H377.323ZM385.941 20.4H401.301V26.064H391.989V31.488H401.301V36.96H391.989V42.576H401.109V48H385.941V20.4ZM403.653 42.576V48H419.013V42.576H403.653ZM419.013 26.064V20.4H403.461V26.064H419.013ZM411.237 36.96V31.488H403.461V36.96H411.237Z" fill="white"/>
<path d="M9.43081 24.7388V25.9177H16.5016V24.7388C16.5016 19.8217 17.7979 15.5695 19.8013 13.0431C16.9439 13.3912 14.3123 14.7724 12.4022 16.9266C10.4921 19.0808 9.4353 21.8593 9.43081 24.7388Z" fill="white"/>
<path d="M28.2863 32.1351C29.8485 31.9219 31.4234 31.814 33.0001 31.812C33.792 31.812 34.5769 31.8486 35.357 31.9005V28.2754H28.2863V32.1351Z" fill="white"/>
<path d="M18.8585 24.7388V25.9177H25.9293V12.95H24.1616C21.6539 12.95 18.8585 17.7905 18.8585 24.7388Z" fill="white"/>
<path d="M35.357 24.7388C35.357 17.7905 32.5617 12.95 30.054 12.95H28.2863V25.9177H35.357V24.7388Z" fill="white"/>
<path d="M18.8585 28.2754V34.7816C21.1297 33.7849 23.4998 33.0309 25.9293 32.5323V28.2754H18.8585Z" fill="white"/>
<path d="M30.5831 5.53012C31.2947 6.23704 32.2161 6.69435 33.2093 6.83355C34.2025 6.97275 35.214 6.78636 36.0924 6.30229L36.1124 6.19619L29.9173 0C29.3904 0.862397 29.1696 1.87727 29.2904 2.8807C29.4112 3.88413 29.8666 4.81752 30.5831 5.53012Z" fill="white"/>
<path d="M47.1417 34.7816C48.773 35.4944 50.3487 36.3282 51.8556 37.2761V25.9177H47.1417V34.7816Z" fill="white"/>
<path d="M27.4884 10.5922H31.8217V8.89936C30.812 8.59738 29.8849 8.06831 29.1112 7.35267L27.4884 10.5922Z" fill="white"/>
<path d="M1.32062 57.6908C6.28864 59.5061 11.5686 60.3126 16.8518 60.063C22.135 59.8134 27.3154 58.5128 32.0903 56.2372C37.3604 53.8571 41.2187 51.9815 44.3134 50.4784C49.9323 47.7528 53.0965 46.2179 57.544 45.1063C56.2889 43.7235 54.9207 42.4478 53.4536 41.2926C49.3501 42.1874 46.47 43.4075 40.9748 45.7381C37.9108 47.0349 34.0973 48.6547 28.8672 50.7213C23.153 53.01 17.0568 54.1941 10.9015 54.2107C8.22144 54.2101 5.5466 53.9735 2.90801 53.5034C2.28312 54.861 1.75273 56.2601 1.32062 57.6908Z" fill="white"/>
<path d="M28.0058 48.5297C33.2087 46.4738 37.0069 44.8611 40.0591 43.5678C43.5833 41.9516 47.2178 40.5877 50.9352 39.4865C48.925 38.1862 46.7803 37.1067 44.5385 36.267C43.0571 36.8129 41.4745 37.4919 39.3426 38.4126C37.0917 39.384 34.2905 40.5935 30.4593 42.1367C26.2188 43.8687 21.6841 44.7661 17.1038 44.7797C14.5714 44.7795 12.0473 44.4904 9.58048 43.918C7.38832 46.1083 5.51328 48.5947 4.00987 51.3048C12.1124 52.5585 20.403 51.5997 28.0058 48.5297Z" fill="white"/>
<path d="M9.43081 40.834C11.5813 38.9165 13.9554 37.2659 16.5016 35.9181V28.2754H9.43081V40.834Z" fill="white"/>
<path d="M37.714 24.7388V25.9177H44.7848V24.7388C44.7803 21.8593 43.7235 19.0808 41.8134 16.9266C39.9032 14.7724 37.2717 13.3912 34.4143 13.0431C36.4177 15.5695 37.714 19.8217 37.714 24.7388Z" fill="white"/>
<path d="M37.714 32.1351C40.1237 32.458 42.4933 33.0305 44.7848 33.8433V28.2754H37.714V32.1351Z" fill="white"/>
<path d="M60.1048 44.4614V28.2754C60.1048 27.6501 59.8565 27.0504 59.4145 26.6082C58.9725 26.1661 58.373 25.9177 57.7479 25.9177H54.2125V38.9065C56.3798 40.5298 58.3565 42.3933 60.1048 44.4614Z" fill="white"/>
<path d="M29.5826 39.9463C33.3867 38.4138 36.1725 37.2125 38.4128 36.2458C39.3662 35.8332 40.1946 35.4784 40.976 35.1495C35.9095 33.8839 30.615 33.841 25.5287 35.0242C20.4424 36.2075 15.7101 38.5831 11.7218 41.9551C17.7457 42.9815 23.9369 42.2852 29.5826 39.9463Z" fill="white"/>
<path d="M45.3457 52.6004C42.2334 54.1094 38.361 55.9873 33.0614 58.3852C27.3205 61.0383 21.0766 62.4261 14.7528 62.4546C9.96205 62.468 5.20715 61.6289 0.710171 59.9766C0.356975 61.5465 0.120634 63.1404 0.00309165 64.7452C-0.00857352 64.9037 0.0128522 65.0629 0.0660068 65.2127C0.119162 65.3625 0.202883 65.4995 0.31185 65.6152C0.424516 65.7374 0.561427 65.8346 0.713823 65.9008C0.866219 65.967 1.03075 66.0006 1.19688 65.9995H16.5016C22.4243 66.0229 28.3186 65.1813 33.9983 63.5015C39.2142 61.9524 43.0206 60.7406 46.0787 59.7668C53.4217 57.4255 56.4492 56.4659 64.0079 55.6832C62.8518 52.6127 61.2435 49.7323 59.2363 47.1375C54.4152 48.1985 51.4608 49.6332 45.3457 52.6004Z" fill="white"/>
<path d="M65.6837 65.6152C65.7937 65.5001 65.8784 65.3632 65.9324 65.2134C65.9863 65.0635 66.0084 64.9041 65.9971 64.7452C65.8276 62.4525 65.4156 60.1842 64.768 57.9784C57.0832 58.7376 54.3303 59.61 46.7882 62.0126C43.7242 62.9899 39.9024 64.2065 34.6618 65.7626C34.3766 65.8463 34.089 65.9194 33.8038 65.9984H64.7975C64.9637 66 65.1285 65.9667 65.2811 65.9007C65.4338 65.8347 65.5709 65.7375 65.6837 65.6152Z" fill="white"/>
</svg>
